<?xml version="1.0" encoding="UTF-8"?>
<svg xmlns="http://www.w3.org/2000/svg" viewBox="0 0 52.09 45.4">
  <defs>
    <style>
      .cls-1 {
        fill: #252525;
      }
    </style>
  </defs>
  <g id="Layer_1" data-name="Layer 1">
    <path class="cls-1" d="m32.15,13.65c3.29,0,5.96,2.68,5.96,5.96v14.82c0,3.29-2.68,5.96-5.96,5.96h-14.82c-3.29,0-5.96-2.68-5.96-5.96v-14.82c0-3.29,2.68-5.96,5.96-5.96h14.82m0-5h-14.82c-6.05,0-10.96,4.91-10.96,10.96v14.82c0,6.05,4.91,10.96,10.96,10.96h14.82c6.05,0,10.96-4.91,10.96-10.96v-14.82c0-6.05-4.91-10.96-10.96-10.96h0Z"/>
  </g>
  <g id="Layer_2" data-name="Layer 2">
    <path class="cls-1" d="m.59,17.74c9.19.89,18.46,4.16,26.55,9.71,0,0-7.46,1.38-7.46,1.38C27.28,16.6,37.93,6.63,50.11,0l1.98,3.07c-10.58,7.99-18.81,18.58-23.85,30.28,0,0-2.75,6.37-2.75,6.37,0,0-4.72-4.99-4.72-4.99-5.36-6.25-12.52-11.32-20.78-14.4,0,0,.59-2.6.59-2.6h0Z"/>
  </g>
</svg>