<?xml version="1.0" encoding="UTF-8"?>
<svg id="Layer_1" data-name="Layer 1" xmlns="http://www.w3.org/2000/svg" viewBox="0 0 52.09 45.4">
  <defs>
    <style>
      .cls-1 {
        fill: #252525;
      }
    </style>
  </defs>
  <path class="cls-1" d="m32.15,13.65c3.29,0,5.96,2.68,5.96,5.96v14.82c0,3.29-2.68,5.96-5.96,5.96h-14.82c-3.29,0-5.96-2.68-5.96-5.96v-14.82c0-3.29,2.68-5.96,5.96-5.96h14.82m0-5h-14.82c-6.05,0-10.96,4.91-10.96,10.96v14.82c0,6.05,4.91,10.96,10.96,10.96h14.82c6.05,0,10.96-4.91,10.96-10.96v-14.82c0-6.05-4.91-10.96-10.96-10.96h0Z"/>
</svg>