<?xml version="1.0" encoding="UTF-8"?>
<svg id="Layer_1" data-name="Layer 1" xmlns="http://www.w3.org/2000/svg" viewBox="0 0 125.89 76.78">
  <defs>
    <style>
      .cls-1 {
        fill: #c5985f;
      }
    </style>
  </defs>
  <path class="cls-1" d="m102,0h-34.83c-1.31,2.19-.73,4.37-2.73,6.56-3.52-2.19-5.26-4.37-8.78-6.56H.61c-.34,0-.61.27-.61.61v75.56c0,.34.27.61.61.61h101.39c.69,0,1.37-.04,2.05-.09l1.18-10.24,4.06,9.2c9.63-3.08,16.6-12.1,16.6-22.75v-29c0-13.19-10.7-23.89-23.89-23.89ZM12.7,67.79c-3.12,0-5.66-2.53-5.66-5.66s2.53-5.66,5.66-5.66,5.66,2.53,5.66,5.66-2.53,5.66-5.66,5.66Zm0-24.13c-3.12,0-5.66-2.53-5.66-5.66s2.53-5.66,5.66-5.66,5.66,2.53,5.66,5.66-2.53,5.66-5.66,5.66Zm0-24.13c-3.12,0-5.66-2.53-5.66-5.66s2.53-5.66,5.66-5.66,5.66,2.53,5.66,5.66-2.53,5.66-5.66,5.66Z"/>
</svg>