<?xml version="1.0" encoding="UTF-8"?>
<svg id="Layer_1" data-name="Layer 1" xmlns="http://www.w3.org/2000/svg" viewBox="0 0 102.11 79.64">
  <defs>
    <style>
      .cls-1 {
        fill: #fff;
      }
    </style>
  </defs>
  <path class="cls-1" d="m51.06,78.64c-20.24,0-38.4-3.22-44.15-7.83l-.04-.04-.05-.02c-3.58-1.71-4.66-13.7-4.58-15.15l.02-.04L1.01,14.44v-.85c-.03-2.66-.06-6.3,1.45-7.82.47-.48,1.07-.71,1.82-.71,1.07,0,2.44.48,4.07,1.42l24.83,12.45L47.22,2.49c.81-.95,1.98-1.49,3.23-1.49s2.42.54,3.23,1.49l14.4,16.88,25.66-12.87c1.66-.95,3.03-1.43,4.1-1.43.75,0,1.34.23,1.82.71,1.51,1.52,1.48,5.16,1.46,7.82v.86s-1.25,41.11-1.25,41.11l.03.04c.08,1.44-1,13.44-4.59,15.15l-.05.02-.04.04c-5.75,4.61-23.91,7.83-44.15,7.83Zm0-39.93c-4.3,0-7.8,3.5-7.8,7.8s3.5,7.8,7.8,7.8,7.8-3.5,7.8-7.8-3.5-7.8-7.8-7.8Zm30.93,2.46c-2.96,0-5.37,2.41-5.37,5.37s2.41,5.37,5.37,5.37,5.37-2.41,5.37-5.37-2.41-5.37-5.37-5.37Zm-61.87,0c-2.96,0-5.37,2.41-5.37,5.37s2.41,5.37,5.37,5.37,5.37-2.41,5.37-5.37-2.41-5.37-5.37-5.37Z"/>
  <path class="cls-1" d="m50.45,1.5c1.1,0,2.13.48,2.85,1.31l14.15,16.58.51.6.7-.35,25.31-12.69h.03s.02-.03.02-.03c1.56-.9,2.85-1.35,3.82-1.35.62,0,1.08.18,1.46.56,1.36,1.37,1.33,5.04,1.31,7.46,0,.3,0,.59,0,.84l-1.24,40.97v.31s.02.05.02.05c.04,2.12-1.22,13.07-4.3,14.54l-.1.05-.09.07c-5.67,4.54-23.7,7.71-43.84,7.71s-38.16-3.17-43.84-7.71l-.09-.07-.1-.05c-3.09-1.48-4.34-12.42-4.3-14.54l.03-.05v-.31S1.51,14.46,1.51,14.46c0-.27,0-.56,0-.87-.02-2.43-.05-6.09,1.31-7.46.38-.38.84-.56,1.46-.56.98,0,2.27.45,3.82,1.35h.02s.03.03.03.03l24.45,12.27.7.35.51-.6L47.6,2.81c.71-.83,1.75-1.31,2.85-1.31m.61,53.31c4.58,0,8.3-3.72,8.3-8.3s-3.72-8.3-8.3-8.3-8.3,3.72-8.3,8.3,3.72,8.3,8.3,8.3m30.93-2.41c3.24,0,5.87-2.63,5.87-5.87s-2.63-5.87-5.87-5.87-5.87,2.63-5.87,5.87,2.63,5.87,5.87,5.87m-61.87,0c3.24,0,5.87-2.63,5.87-5.87s-2.63-5.87-5.87-5.87-5.87,2.63-5.87,5.87,2.63,5.87,5.87,5.87M50.45.5c-1.33,0-2.66.55-3.61,1.66l-13.79,16.15L8.6,6.05c-1.82-1.04-3.23-1.48-4.32-1.48-4.16,0-3.77,6.34-3.77,9.89l1.24,40.97c-.16.25.67,13.78,4.85,15.78,5.73,4.59,23.46,7.93,44.46,7.93s38.73-3.35,44.46-7.93c4.18-2,5.01-15.52,4.85-15.78l1.24-40.97c0-3.55.39-9.89-3.77-9.89-1.1,0-2.51.44-4.32,1.48l-25.31,12.69L54.05,2.16c-.95-1.11-2.28-1.66-3.61-1.66h0Zm.61,53.31c-4.03,0-7.3-3.27-7.3-7.3s3.27-7.3,7.3-7.3,7.3,3.27,7.3,7.3-3.27,7.3-7.3,7.3h0Zm30.93-2.41c-2.69,0-4.87-2.18-4.87-4.87s2.18-4.87,4.87-4.87,4.87,2.18,4.87,4.87-2.18,4.87-4.87,4.87h0Zm-61.87,0c-2.69,0-4.87-2.18-4.87-4.87s2.18-4.87,4.87-4.87,4.87,2.18,4.87,4.87-2.18,4.87-4.87,4.87h0Z"/>
</svg>