<?xml version="1.0" encoding="UTF-8"?>
<svg id="Layer_1" data-name="Layer 1" xmlns="http://www.w3.org/2000/svg" viewBox="0 0 58.94 58.94">
  <defs>
    <style>
      .cls-1 {
        fill: #fff;
      }
    </style>
  </defs>
  <path class="cls-1" d="m56.3,22.55h-5.45c-.37-1.15-.83-2.25-1.38-3.31l3.86-3.86c1.03-1.03,1.03-2.7,0-3.73l-6.05-6.05c-1.03-1.03-2.7-1.03-3.73,0l-3.86,3.86c-1.06-.54-2.16-1-3.31-1.37V2.64c0-1.46-1.18-2.64-2.64-2.64h-8.56c-1.46,0-2.64,1.18-2.64,2.64v5.45c-1.15.37-2.25.83-3.31,1.38l-3.86-3.86c-1.03-1.03-2.7-1.03-3.73,0l-6.05,6.05c-1.03,1.03-1.03,2.7,0,3.73l3.86,3.86c-.54,1.06-1,2.16-1.38,3.31H2.64c-1.46,0-2.64,1.18-2.64,2.64v8.56c0,1.46,1.18,2.64,2.64,2.64h5.45c.37,1.15.83,2.25,1.37,3.31l-3.86,3.86c-1.03,1.03-1.03,2.7,0,3.73l6.05,6.05c1.03,1.03,2.7,1.03,3.73,0l3.86-3.86c1.06.54,2.16,1,3.31,1.38v5.45c0,1.46,1.18,2.64,2.64,2.64h8.56c1.46,0,2.64-1.18,2.64-2.64v-5.45c1.15-.37,2.25-.83,3.31-1.37l3.86,3.86c1.03,1.03,2.7,1.03,3.73,0l6.05-6.05c1.03-1.03,1.03-2.7,0-3.73l-3.86-3.86c.54-1.06,1-2.16,1.37-3.31h5.45c1.46,0,2.64-1.18,2.64-2.64v-8.56c0-1.46-1.18-2.64-2.64-2.64Zm-26.83,18.97c-6.58,0-11.92-5.34-11.92-11.92s5.34-11.92,11.92-11.92,11.92,5.34,11.92,11.92-5.34,11.92-11.92,11.92Z"/>
</svg>